<svg id="Layer_1" data-name="Layer 1" xmlns="http://www.w3.org/2000/svg" viewBox="0 0 209.09 53.77"><defs></defs><title>export</title><path fill="#ffffff" d="M101.12,35.62l-1.33-3.27H93.63L92.3,35.62H89L95.28,21h3l6.24,14.67ZM96.71,24.8l-1.93,4.72h3.87Z"></path><path fill="#ffffff" d="M107.05,35.62V21.06h3.18V32.71h7.27v2.91Z"></path><path fill="#ffffff" d="M120.23,35.62V21.06h3.2V32.71h7.27v2.91Z"></path><path fill="#ffffff" d="M133.47,35.62V21.06h11v2.85h-7.81v2.95h6.87v2.85h-6.87v3.06h7.91v2.85Z"></path><path fill="#ffffff" d="M154.67,35.62h-6.93V21.06h6.76c3,0,4.81,1.47,4.81,3.76h0A3.35,3.35,0,0,1,157.4,28c1.68.65,2.72,1.63,2.72,3.58h0C160.12,34.29,158,35.62,154.67,35.62Zm1.46-10.26c0-.95-.75-1.5-2.1-1.5h-3.17v3.08h3c1.41,0,2.31-.45,2.31-1.54Zm.81,5.83c0-1-.73-1.58-2.37-1.58h-3.71v3.2h3.81c1.42,0,2.27-.5,2.27-1.58Z"></path><path fill="#ffffff" d="M171.94,35.62,168.82,31H166.3v4.66h-3.2V21.06h6.65c3.44,0,5.5,1.81,5.5,4.8h0a4.52,4.52,0,0,1-3.12,4.52l3.55,5.2ZM172,26c0-1.37-1-2.08-2.52-2.08H166.3v4.18h3.25c1.56,0,2.45-.83,2.45-2.06Z"></path><path fill="#ffffff" d="M184.55,35.85c-3.92,0-6.31-2.19-6.31-6.47V21.06h3.21v8.23c0,2.38,1.18,3.6,3.14,3.6s3.14-1.18,3.14-3.49V21.06h3.2v8.21C190.93,33.68,188.46,35.85,184.55,35.85Z"></path><path fill="#ffffff" d="M205.91,35.62V26.11l-4.1,6.22h-.08l-4.06-6.16v9.45h-3.14V21.06H198l3.83,6.15,3.83-6.15h3.45V35.62Z"></path><path fill="#ffffff" d="M77.38,53.77,40.46,40,0,53.61,29.89,0Z"></path><polygon fill="#ffffff" points="47.39 20.49 68.93 15.28 58.99 33.81 0 53.63 47.39 20.49"></polygon></svg>