<?xml version="1.0" encoding="UTF-8"?>
<svg id="Layer_1" xmlns="http://www.w3.org/2000/svg" version="1.1" viewBox="0 0 211.78 57.3">
  
  <defs></defs>
  <path fill="#3D4F5C" d="M103.81,37.19l-1.33-3.27h-6.16l-1.33,3.27h-3.3l6.28-14.62h3l6.24,14.67-3.4-.05ZM99.4,26.37l-1.93,4.72h3.87l-1.94-4.72Z"></path>
  <path fill="#3D4F5C" d="M109.74,37.19v-14.56h3.18v11.65h7.27v2.91h-10.45Z"></path>
  <path fill="#3D4F5C" d="M122.92,37.19v-14.56h3.2v11.65h7.27v2.91h-10.47Z"></path>
  <path fill="#3D4F5C" d="M136.16,37.19v-14.56h11v2.85h-7.81v2.95h6.87v2.85h-6.87v3.06h7.91v2.85h-11.1Z"></path>
  <path fill="#3D4F5C" d="M157.36,37.19h-6.93v-14.56h6.76c3,0,4.81,1.47,4.81,3.76h0c.06,1.35-.69,2.6-1.91,3.18,1.68.65,2.72,1.63,2.72,3.58h0c0,2.71-2.12,4.04-5.45,4.04ZM158.82,26.93c0-.95-.75-1.5-2.1-1.5h-3.17v3.08h3c1.41,0,2.31-.45,2.31-1.54l-.04-.04ZM159.63,32.76c0-1-.73-1.58-2.37-1.58h-3.71v3.2h3.81c1.42,0,2.27-.5,2.27-1.58v-.04Z"></path>
  <path fill="#3D4F5C" d="M174.63,37.19l-3.12-4.62h-2.52v4.66h-3.2v-14.6h6.65c3.44,0,5.5,1.81,5.5,4.8h0c.1,2.04-1.18,3.89-3.12,4.52l3.55,5.2-3.74.04ZM174.69,27.57c0-1.37-1-2.08-2.52-2.08h-3.18v4.18h3.25c1.56,0,2.45-.83,2.45-2.06v-.04Z"></path>
  <path fill="#3D4F5C" d="M187.24,37.42c-3.92,0-6.31-2.19-6.31-6.47v-8.32h3.21v8.23c0,2.38,1.18,3.6,3.14,3.6s3.14-1.18,3.14-3.49v-8.34h3.2v8.21c0,4.41-2.47,6.58-6.38,6.58Z"></path>
  <path fill="#3D4F5C" d="M208.6,37.19v-9.51l-4.1,6.22h-.08l-4.06-6.16v9.45h-3.14v-14.56h3.47l3.83,6.15,3.83-6.15h3.45v14.56h-3.2Z"></path>
  <path fill="#3D4F5C" d="M80.07,55.34l-36.92-13.77L2.69,55.18,32.58,1.57l47.49,53.77Z"></path>
  <polygon fill="#00A3C4" points="50.08 22.06 71.62 16.85 61.68 35.38 2.69 55.2 50.08 22.06"></polygon>
</svg>